<?xml version="1.0" encoding="UTF-8" standalone="no"?>
<!-- Created with Inkscape (http://www.inkscape.org/) -->

<svg
   xmlns:dc="http://purl.org/dc/elements/1.1/"
   xmlns:cc="http://creativecommons.org/ns#"
   xmlns:rdf="http://www.w3.org/1999/02/22-rdf-syntax-ns#"
   xmlns:svg="http://www.w3.org/2000/svg"
   xmlns="http://www.w3.org/2000/svg"
   xmlns:sodipodi="http://sodipodi.sourceforge.net/DTD/sodipodi-0.dtd"
   xmlns:inkscape="http://www.inkscape.org/namespaces/inkscape"
   width="128"
   height="128"
   id="svg2"
   version="1.1"
   inkscape:version="0.48.5 r10040"
   sodipodi:docname="todoList.png">
  <defs
     id="defs4">
    <filter
       x="-0.25"
       width="1.5"
       y="-0.25"
       height="1.5"
       inkscape:menu="Non realistic 3D shaders"
       inkscape:menu-tooltip="Fluid brushed cartoon drawing"
       inkscape:label="Comics fluid"
       color-interpolation-filters="sRGB"
       id="filter3650">
      <feGaussianBlur
         result="result8"
         stdDeviation="4"
         id="feGaussianBlur3652" />
      <feComposite
         in="result8"
         operator="xor"
         result="result6"
         in2="result8"
         id="feComposite3654" />
      <feDisplacementMap
         result="result4"
         scale="100"
         yChannelSelector="A"
         xChannelSelector="A"
         in2="result6"
         in="result6"
         id="feDisplacementMap3656" />
      <feComposite
         k1="5"
         in="result8"
         operator="arithmetic"
         result="result2"
         in2="result4"
         id="feComposite3658" />
      <feComposite
         in2="result2"
         operator="in"
         in="result6"
         result="fbSourceGraphic"
         id="feComposite3660" />
    </filter>
    <filter
       x="-0.25"
       width="1.5"
       y="-0.25"
       height="1.5"
       inkscape:menu="Non realistic 3D shaders"
       inkscape:menu-tooltip="Fluid brushed cartoon drawing"
       inkscape:label="Comics fluid"
       color-interpolation-filters="sRGB"
       id="filter3662">
      <feGaussianBlur
         result="result8"
         stdDeviation="4"
         id="feGaussianBlur3664" />
      <feComposite
         in="result8"
         operator="xor"
         result="result6"
         in2="result8"
         id="feComposite3666" />
      <feDisplacementMap
         result="result4"
         scale="100"
         yChannelSelector="A"
         xChannelSelector="A"
         in2="result6"
         in="result6"
         id="feDisplacementMap3668" />
      <feComposite
         k1="5"
         in="result8"
         operator="arithmetic"
         result="result2"
         in2="result4"
         id="feComposite3670" />
      <feComposite
         in2="result2"
         operator="in"
         in="result6"
         result="fbSourceGraphic"
         id="feComposite3672" />
    </filter>
    <filter
       x="-0.25"
       width="1.5"
       y="-0.25"
       height="1.5"
       inkscape:menu="Non realistic 3D shaders"
       inkscape:menu-tooltip="Fluid brushed cartoon drawing"
       inkscape:label="Comics fluid"
       color-interpolation-filters="sRGB"
       id="filter3674">
      <feGaussianBlur
         result="result8"
         stdDeviation="4"
         id="feGaussianBlur3676" />
      <feComposite
         in="result8"
         operator="xor"
         result="result6"
         in2="result8"
         id="feComposite3678" />
      <feDisplacementMap
         result="result4"
         scale="100"
         yChannelSelector="A"
         xChannelSelector="A"
         in2="result6"
         in="result6"
         id="feDisplacementMap3680" />
      <feComposite
         k1="5"
         in="result8"
         operator="arithmetic"
         result="result2"
         in2="result4"
         id="feComposite3682" />
      <feComposite
         in2="result2"
         operator="in"
         in="result6"
         result="fbSourceGraphic"
         id="feComposite3684" />
    </filter>
    <filter
       x="-0.25"
       width="1.5"
       y="-0.25"
       height="1.5"
       inkscape:menu="Non realistic 3D shaders"
       inkscape:menu-tooltip="Fluid brushed cartoon drawing"
       inkscape:label="Comics fluid"
       color-interpolation-filters="sRGB"
       id="filter3794">
      <feGaussianBlur
         result="result8"
         stdDeviation="4"
         id="feGaussianBlur3796" />
      <feComposite
         in="result8"
         operator="xor"
         result="result6"
         in2="result8"
         id="feComposite3798" />
      <feDisplacementMap
         result="result4"
         scale="100"
         yChannelSelector="A"
         xChannelSelector="A"
         in2="result6"
         in="result6"
         id="feDisplacementMap3800" />
      <feComposite
         k1="5"
         in="result8"
         operator="arithmetic"
         result="result2"
         in2="result4"
         id="feComposite3802" />
      <feComposite
         in2="result2"
         operator="in"
         in="result6"
         result="fbSourceGraphic"
         id="feComposite3804" />
    </filter>
    <filter
       x="-0.25"
       width="1.5"
       y="-0.25"
       height="1.5"
       inkscape:menu="Non realistic 3D shaders"
       inkscape:menu-tooltip="Fluid brushed cartoon drawing"
       inkscape:label="Comics fluid"
       color-interpolation-filters="sRGB"
       id="filter3806">
      <feGaussianBlur
         result="result8"
         stdDeviation="4"
         id="feGaussianBlur3808" />
      <feComposite
         in="result8"
         operator="xor"
         result="result6"
         in2="result8"
         id="feComposite3810" />
      <feDisplacementMap
         result="result4"
         scale="100"
         yChannelSelector="A"
         xChannelSelector="A"
         in2="result6"
         in="result6"
         id="feDisplacementMap3812" />
      <feComposite
         k1="5"
         in="result8"
         operator="arithmetic"
         result="result2"
         in2="result4"
         id="feComposite3814" />
      <feComposite
         in2="result2"
         operator="in"
         in="result6"
         result="fbSourceGraphic"
         id="feComposite3816" />
    </filter>
    <filter
       x="-0.25"
       width="1.5"
       y="-0.25"
       height="1.5"
       inkscape:menu="Non realistic 3D shaders"
       inkscape:menu-tooltip="Fluid brushed cartoon drawing"
       inkscape:label="Comics fluid"
       color-interpolation-filters="sRGB"
       id="filter3818">
      <feGaussianBlur
         result="result8"
         stdDeviation="4"
         id="feGaussianBlur3820" />
      <feComposite
         in="result8"
         operator="xor"
         result="result6"
         in2="result8"
         id="feComposite3822" />
      <feDisplacementMap
         result="result4"
         scale="100"
         yChannelSelector="A"
         xChannelSelector="A"
         in2="result6"
         in="result6"
         id="feDisplacementMap3824" />
      <feComposite
         k1="5"
         in="result8"
         operator="arithmetic"
         result="result2"
         in2="result4"
         id="feComposite3826" />
      <feComposite
         in2="result2"
         operator="in"
         in="result6"
         result="fbSourceGraphic"
         id="feComposite3828" />
    </filter>
  </defs>
  <sodipodi:namedview
     id="base"
     pagecolor="#ffffff"
     bordercolor="#666666"
     borderopacity="1.0"
     inkscape:pageopacity="0.0"
     inkscape:pageshadow="2"
     inkscape:zoom="2.6601563"
     inkscape:cx="54.666562"
     inkscape:cy="56.329311"
     inkscape:document-units="px"
     inkscape:current-layer="layer1"
     showgrid="false"
     borderlayer="false"
     inkscape:snap-page="false"
     inkscape:window-width="1920"
     inkscape:window-height="897"
     inkscape:window-x="0"
     inkscape:window-y="27"
     inkscape:window-maximized="1">
    <inkscape:grid
       type="xygrid"
       id="grid2987"
       empspacing="5"
       visible="true"
       enabled="true"
       snapvisiblegridlinesonly="true" />
  </sodipodi:namedview>
  <metadata
     id="metadata7">
    <rdf:RDF>
      <cc:Work
         rdf:about="">
        <dc:format>image/svg+xml</dc:format>
        <dc:type
           rdf:resource="http://purl.org/dc/dcmitype/StillImage" />
        <dc:title></dc:title>
      </cc:Work>
    </rdf:RDF>
  </metadata>
  <g
     inkscape:label="Layer 1"
     inkscape:groupmode="layer"
     id="layer1"
     transform="translate(0,-924.36218)">
    <rect
       style="fill:#666666;filter:url(#filter3674)"
       id="rect2989"
       width="60"
       height="20"
       x="54"
       y="962.36218" />
    <rect
       style="fill:#666666;filter:url(#filter3650)"
       id="rect2989-6"
       width="60"
       height="20"
       x="54"
       y="992.36218" />
    <rect
       style="fill:#666666;filter:url(#filter3662)"
       id="rect2989-6-0"
       width="60"
       height="20"
       x="54"
       y="1022.3622" />
    <path
       style="fill:#4d4d4d;filter:url(#filter3818)"
       d="m 14.02508,972.33696 0,-9.948 9.94799,0 9.947991,0 0,9.948 0,9.94799 -9.947991,0 -9.94799,0 0,-9.94799 z"
       id="path3087"
       inkscape:connector-curvature="0" />
    <path
       style="fill:#4d4d4d;filter:url(#filter3806)"
       d="m 14.02508,1002.3741 0,-9.85142 9.94799,0 9.947991,0 0,9.85142 0,9.8514 -9.947991,0 -9.94799,0 0,-9.8514 z"
       id="path3089"
       inkscape:connector-curvature="0" />
    <path
       style="fill:#4d4d4d;filter:url(#filter3794)"
       d="m 14.02508,1032.4112 0,-9.948 9.94799,0 9.947991,0 0,9.948 0,9.948 -9.947991,0 -9.94799,0 0,-9.948 z"
       id="path3091"
       inkscape:connector-curvature="0" />
    <text
       xml:space="preserve"
       style="font-size:32px;font-style:normal;font-variant:normal;font-weight:normal;font-stretch:normal;line-height:125%;letter-spacing:0px;word-spacing:0px;fill:#000000;fill-opacity:1;stroke:none;font-family:Purisa;-inkscape-font-specification:Purisa"
       x="11.328375"
       y="980.698"
       id="text3107"
       sodipodi:linespacing="125%"><tspan
         sodipodi:role="line"
         id="tspan3109"
         x="11.328375"
         y="980.698">v</tspan></text>
    <text
       xml:space="preserve"
       style="font-size:32px;font-style:normal;font-variant:normal;font-weight:normal;font-stretch:normal;line-height:125%;letter-spacing:0px;word-spacing:0px;fill:#000000;fill-opacity:1;stroke:none;font-family:Purisa;-inkscape-font-specification:Purisa"
       x="12.109257"
       y="1040.3359"
       id="text3107-1"
       sodipodi:linespacing="125%"><tspan
         sodipodi:role="line"
         id="tspan3109-3"
         x="12.109257"
         y="1040.3359">v</tspan></text>
    <path
       style="fill:#4d4d4d"
       id="path3840"
       d="m 21.646402,6.9468346 c 0.763712,0.6954221 1.479474,1.4396385 2.221028,2.1578489 0.629368,0.6328716 0.999827,0.9363205 1.872199,1.1139185 0.430579,0.07822 0.863388,0.03829 1.261793,-0.146856 0.100247,-0.04659 0.387389,-0.2131544 0.291294,-0.1585147 -0.707493,0.4022777 -1.417018,0.8009687 -2.125527,1.2014537 0.509894,-0.353368 0.761129,-0.890642 0.923836,-1.4693504 0.102052,-0.4479532 0.129035,-0.9098012 0.102209,-1.3673624 -0.08336,-0.29866 -0.319021,-0.4729237 -0.626033,-0.3216869 -0.08023,0.039519 -0.294226,0.2022813 -0.215593,0.159685 0.715339,-0.3875028 1.418529,-0.7970233 2.127794,-1.195535 -0.591582,0.4932987 -0.87038,1.2343873 -1.109726,1.9443701 -0.21475,0.6459281 -0.286058,1.3177146 -0.315906,1.9935126 0.0071,0.708213 -0.06947,1.41221 -0.121285,2.117517 -0.01559,0.672822 -0.08178,1.333817 -0.201819,1.995465 -0.09238,0.781664 -0.245731,1.549956 -0.415113,2.317822 -0.148533,0.694275 -0.489525,1.32049 -0.848902,1.9252 -1.066357,1.540372 -2.930038,2.287599 -4.488216,3.182287 -0.846122,0.46871 -1.78649,0.655343 -2.738411,0.744234 -0.98051,0.06066 -1.963677,0.0465 -2.945529,0.0453 -0.607869,-0.04761 -1.36422,-0.0446 -1.838132,-0.501446 -0.08125,-0.07833 -0.142255,-0.175254 -0.213383,-0.262881 -0.371484,-0.517733 -0.528037,-1.207014 -0.29226,-1.818166 0.05203,-0.134868 0.134545,-0.255899 0.201817,-0.383848 0.09797,-0.123741 0.185342,-0.25666 0.2939,-0.371222 0.161229,-0.170146 0.547938,-0.48418 0.753528,-0.603726 1.436506,-0.835299 2.421055,-1.483849 3.841025,-1.993279 0.517165,-0.165044 1.055658,-0.335054 1.607506,-0.293779 0.269789,0.02018 0.472618,0.09679 0.729108,0.174084 0.847887,0.181358 1.602456,0.563061 2.279082,1.096121 0.586539,0.503442 1.108046,1.076016 1.643518,1.631947 0.442036,0.510547 0.966571,0.929222 1.46867,1.376003 0.514719,0.533133 1.007262,1.086051 1.636076,1.485775 0.658522,0.382513 1.382081,0.580826 2.132355,0.668997 0.332251,-0.0067 0.671796,0.0078 0.99625,-0.0805 0.509019,-0.1385 3.695395,-2.025373 -1.359577,0.807712 0.732732,-0.523555 1.303435,-1.228606 1.773452,-1.988895 0.410295,-0.70249 0.843666,-1.390865 1.223531,-2.110623 0.283543,-0.507221 0.534849,-1.030912 0.803981,-1.545485 0.502237,-1.047788 2.240239,-2.937227 3.072719,-1.632489 0.195557,0.659348 0.225928,1.361671 0.330671,2.041514 0.110374,0.66571 0.248567,1.326917 0.505898,1.95219 0.288795,0.636288 0.671879,1.210005 1.1074,1.753259 0.472226,0.57149 0.972578,1.121826 1.646541,1.449703 0.60183,0.237925 1.230618,0.117646 1.834099,-0.04503 0.452014,-0.152247 0.46095,-0.138777 0.894566,-0.352443 0.141543,-0.06975 0.554414,-0.301616 0.417064,-0.223937 -3.235309,1.829768 -2.100123,1.237259 -1.163963,0.493451 0.628043,-0.536515 1.272366,-1.067321 1.74507,-1.750905 0.366109,-0.674923 0.648902,-1.389378 0.991464,-2.077903 0.262845,-0.536498 0.4116,-1.111503 0.483658,-1.701707 0.303816,-1.150049 1.729101,-1.351534 2.765517,-1.859316 0.127356,-0.0624 0.844093,0.253203 0.967316,0.302891 0.728472,0.325906 1.437004,0.690668 2.151357,1.04586 0.110639,0.06903 0.227571,0.128866 0.331918,0.207082 0.152914,0.114621 0.673316,0.595698 0.791523,0.704462 0.405621,0.373218 0.806422,0.751445 1.206157,1.130936 0.471218,0.490432 0.984586,0.957779 1.250149,1.594319 0.168177,0.492318 0.189793,1.011643 0.199768,1.526549 0.0049,0.665711 -0.268586,1.000394 -0.774943,1.392321 -1.625757,0.923025 -2.39008,1.822121 -4.069554,1.700308 -0.567631,-0.0741 -0.863812,-0.446086 -1.093995,-0.931946 -0.209453,-0.654719 -0.291412,-1.339029 -0.229379,-2.02237 0.147115,-0.609555 0.519147,-1.095508 1.058962,-1.414851 0.899427,-0.532083 1.809595,-1.045798 2.714392,-1.568696 0.629582,-0.287953 1.299913,-0.449667 1.98789,-0.500788 0.366468,-0.106003 0.786416,-0.06474 1.151898,-0.147856 0.04832,-0.01099 0.554406,-0.209352 0.596911,-0.225846 1.048222,-0.382046 3.709099,-1.982498 -0.406383,0.364787 0.915749,-0.530383 1.831224,-1.061242 2.747248,-1.59115 0.989232,-0.572257 0.836288,-0.453988 -1.62148,0.931512 -0.111558,0.06289 0.218324,-0.134008 0.325219,-0.204531 0.358883,-0.236768 0.290465,-0.196238 0.620374,-0.479 0.542937,-0.514358 0.910612,-1.128981 1.128931,-1.838337 0.191948,-0.606521 0.326373,-1.224067 0.413991,-1.853583 0.07334,-0.559647 0.09125,-1.124016 0.09884,-1.687711 0.0046,-0.536759 0.0065,-1.073572 0.0054,-1.610354 -4.27e-4,-0.09436 -2.72e-4,-0.188715 -0.0013,-0.283066 -7.77e-4,-0.07272 -0.0022,-0.14544 -0.0041,-0.218143 -0.0013,-0.04918 -0.05615,-0.125891 -0.01176,-0.147111 2.553822,-1.2210271 2.527693,-2.1068068 2.500814,-1.0228834 -0.06201,0.6919974 0.05521,1.3564354 0.211244,2.0275414 0.21213,0.917365 0.598237,1.778844 0.915378,2.661676 0.228293,0.822891 0.461351,1.647529 0.611764,2.488944 0.102092,0.617773 0.186662,1.238135 0.283894,1.856463 0.123954,0.643513 0.326683,1.262211 0.602461,1.855607 0.326941,0.630042 0.711299,1.22298 1.145563,1.783506 0.406334,0.521773 0.831586,1.003303 1.432913,1.29382 0.566261,0.208337 1.188184,0.18666 1.781763,0.153802 1.059467,-0.08033 2.020505,-0.379582 3.025317,-0.689384 0.455209,-0.186276 0.902493,-0.399998 1.332913,-0.638553 0.126606,-0.07017 0.498237,-0.294903 0.372347,-0.223457 -2.024022,1.14868 -2.640623,1.603964 -1.684296,0.92208 0.401055,-0.355621 0.439373,-0.483215 0.203943,-0.952626 0,0 2.408211,-1.37639 2.408211,-1.37639 l 0,0 c 0.266808,0.498854 0.3995,0.851407 -0.04178,1.303142 -1.112721,0.920521 -0.235237,0.222821 -3.032884,1.841868 -0.552655,0.319832 -1.133877,0.594888 -1.735952,0.807763 -1.004066,0.309818 -2.023059,0.573062 -3.07701,0.638548 -0.637721,0.01509 -1.297293,0.03249 -1.881727,-0.262235 -0.60505,-0.347567 -1.058607,-0.851724 -1.481491,-1.401929 -0.448021,-0.575755 -0.847793,-1.184786 -1.182323,-1.834102 -0.286915,-0.615338 -0.506229,-1.253471 -0.643497,-1.919607 -0.105185,-0.61704 -0.178452,-1.240345 -0.275557,-1.858759 -0.13506,-0.829056 -0.350281,-1.644026 -0.585513,-2.449591 -0.31066,-0.895527 -0.688336,-1.769562 -0.918086,-2.69175 -0.173978,-0.682364 -0.329725,-1.356633 -0.28102,-2.066086 -0.02689,-1.1085863 -0.05036,-0.149338 2.501262,-1.5297387 0.0062,-0.00337 -0.0059,0.013181 -0.0064,0.020242 -0.0032,0.047245 -0.0034,0.094641 -0.0044,0.1419803 -0.0016,0.073975 -0.0028,0.1479611 -0.0034,0.2219514 -7.01e-4,0.094621 -2.59e-4,0.1892469 -3.89e-4,0.2838703 7.2e-4,0.536953 0.0076,1.073888 0.0041,1.610846 -0.0098,0.575647 -0.02789,1.152302 -0.09801,1.724271 -0.08365,0.639049 -0.18247,1.275173 -0.39158,1.88743 -0.200671,0.751687 -0.534508,1.413355 -1.079288,1.980219 -0.986308,1.000401 -2.539727,1.67706 -3.646719,2.319315 -0.127177,0.07379 -0.509587,0.293623 -0.382525,0.219637 0.658422,-0.383388 1.317743,-0.765232 1.976615,-1.147848 -1.424996,0.835749 -2.803387,1.771487 -4.360437,2.345455 -0.582032,0.191969 -1.186413,0.244992 -1.79234,0.322522 -0.665108,0.08827 -1.314495,0.259692 -1.908339,0.581751 4.676667,-2.73452 1.61834,-1.096261 1.182871,-0.551347 -0.148176,0.185416 -0.213978,0.355078 -0.313844,0.566076 -0.09863,0.631301 -0.02372,1.268166 0.165274,1.878242 0.214493,0.448294 0.403192,0.649683 0.929057,0.678201 0.217433,0.0013 0.283252,0.01048 0.501628,-0.02502 1.021626,-0.16609 2.681098,-1.362777 -1.278445,0.971799 0.531328,-0.33433 0.819792,-0.477796 0.878991,-1.141988 -0.004,-0.482057 -0.0083,-0.97076 -0.147763,-1.436752 -0.23712,-0.60197 -0.739511,-1.037635 -1.164614,-1.509886 -0.720305,-0.699652 -1.432985,-1.442978 -2.297064,-1.964039 -0.706226,-0.352304 -1.407435,-0.715644 -2.136139,-1.020336 -0.213189,-0.07183 -0.426885,-0.163867 -0.656633,-0.171828 -0.0748,-0.0026 -0.284733,0.07504 -0.221893,0.03438 0.721968,-0.467122 1.480877,-0.874647 2.214333,-1.323514 0.05317,-0.03254 -0.124365,0.03327 -0.171915,0.07358 -0.04786,0.04056 -0.06781,0.105564 -0.101715,0.158346 -0.06264,0.620535 -0.203718,1.226851 -0.461687,1.797812 -0.1779,0.36559 -0.388705,0.717945 -0.544002,1.094089 -0.163524,0.396072 -0.103672,0.353295 -0.276737,0.724987 -0.04506,0.09677 -0.101101,0.188036 -0.151652,0.282054 -0.42729,0.74351 -1.094072,1.283782 -1.732452,1.842689 -1.439462,1.209578 -3.090682,2.236536 -4.894429,2.783832 -0.664397,0.136243 -1.343338,0.220062 -1.969324,-0.104891 -0.672558,-0.390918 -1.191138,-0.962678 -1.689121,-1.553376 -0.458403,-0.559363 -0.855173,-1.157741 -1.157762,-1.816989 -0.266366,-0.644792 -0.423106,-1.323969 -0.53133,-2.012397 -0.103272,-0.639078 -0.144655,-1.292062 -0.298688,-1.920933 -0.04958,-0.06251 -0.02314,-0.06254 -0.07807,-0.01415 0.766055,-0.456899 1.53211,-0.913799 2.298164,-1.370699 0.04242,-0.02469 -0.07809,0.06049 -0.110427,0.09742 -0.110797,0.126545 -0.143417,0.214 -0.221372,0.364841 -0.29583,0.504007 -0.518245,1.048702 -0.825986,1.547115 -0.372242,0.728714 -0.804097,1.42283 -1.218455,2.127893 -0.09265,0.15696 -0.350468,0.60158 -0.453574,0.743027 -0.363308,0.498406 -0.80511,0.961164 -1.27732,1.354347 -0.907074,0.539867 -1.807121,1.091718 -2.72122,1.619602 -0.532809,0.307693 -1.157721,0.307387 -1.751802,0.263401 -0.776489,-0.122795 -1.518966,-0.366989 -2.19652,-0.774276 -0.62564,-0.424598 -1.132051,-0.980339 -1.6627,-1.514902 -0.512133,-0.446408 -1.030359,-0.88246 -1.47626,-1.398458 -0.524446,-0.547263 -1.039699,-1.107233 -1.617464,-1.599399 -0.665412,-0.49913 -1.405576,-0.835346 -2.224493,-1.000829 -0.829374,-0.18923 -1.42748,-0.04539 -2.218936,0.244786 -1.076557,0.41909 -2.349307,1.191031 0.891277,-0.709508 0.135569,-0.07951 -0.265904,0.167782 -0.395316,0.256961 -0.449406,0.309688 -0.326635,0.219399 -0.690757,0.605365 -0.14977,0.217424 -0.305284,0.395524 -0.365231,0.660979 -0.09626,0.42627 0.05743,0.89186 0.31001,1.228737 0.05888,0.06618 0.109305,0.140992 0.176651,0.198537 0.454771,0.388588 1.171985,0.332848 1.721182,0.379911 0.977869,0.0027 1.95818,0.01216 2.933175,-0.07419 0.9337,-0.117465 1.842035,-0.34131 2.66247,-0.82248 -3.810298,2.234963 -1.419389,0.933987 -0.683742,0.231836 0.18577,-0.177311 0.335221,-0.371158 0.496939,-0.568757 0.367447,-0.57471 0.707923,-1.176492 0.884267,-1.840421 0.175333,-0.764124 0.358855,-1.524726 0.425566,-2.308563 0.112441,-0.654287 0.204977,-1.303392 0.211711,-1.9695 0.05395,-0.702139 0.130138,-1.403168 0.124707,-2.108191 0.02434,-0.699358 0.06808,-1.395083 0.290394,-2.065579 0.233139,-0.7465419 0.504966,-1.5029225 1.026648,-2.1015364 0.878401,-0.5186079 1.744043,-1.0594588 2.635202,-1.5558238 0.496126,-0.276337 0.98625,0.1610633 1.134164,0.6082803 0.05123,0.4840701 0.02804,0.9724507 -0.06226,1.4513997 -0.144762,0.6196507 -0.36922,1.2143089 -0.846665,1.6581132 -0.877988,0.513128 -1.74864,1.039019 -2.633964,1.539383 -0.501111,0.283216 -1.122363,0.268404 -1.666055,0.156062 -0.878247,-0.238673 -1.300041,-0.603474 -1.929845,-1.254437 -0.738154,-0.728521 -1.45843,-1.4755457 -2.258102,-2.1387592 0,0 2.378922,-1.4578052 2.378922,-1.4578052 z"
       inkscape:connector-curvature="0"
       transform="translate(0,924.36218)" />
    <path
       style="fill:#4d4d4d"
       id="path3848"
       d="m 65.649014,16.440566 c 1.0401,-0.07472 2.082724,-0.100358 3.124953,-0.124451 0.832074,-0.02253 1.664449,-0.02448 2.496754,-0.02892 0.710536,-2.9e-5 1.421074,0.0021 2.131613,0.0027 0.845901,-0.01977 1.678111,0.159925 2.513919,0.265106 0.635898,0.07605 1.275984,0.09739 1.915717,0.107241 0.629316,0.0056 1.258655,0.0037 1.887985,0.005 0.736263,-0.02695 1.453312,-0.104622 2.148748,-0.351848 0.449936,-0.174446 0.883411,-0.3651 1.353215,-0.481255 0,0 -2.207965,1.69732 -2.207965,1.69732 l 0,0 c -0.454312,0.140372 -0.884439,0.342468 -1.338599,0.483766 -0.716148,0.205066 -1.454569,0.260276 -2.197577,0.281459 -0.633093,0.0028 -1.26632,0.0066 -1.899348,-0.0042 -0.642798,-0.01628 -1.284974,-0.05415 -1.922688,-0.140105 -0.827567,-0.114489 -1.65464,-0.272746 -2.494337,-0.234556 -0.711921,-9.7e-5 -1.423841,6.6e-4 -2.135761,9.86e-4 -0.822951,-0.0021 -1.645918,0.0023 -2.468768,0.01587 -1.050318,0.02381 -2.101856,0.0545 -3.147384,0.164207 0,0 2.239523,-1.658336 2.239523,-1.658336 z"
       inkscape:connector-curvature="0"
       transform="translate(0,924.36218)" />
    <path
       style="fill:#4d4d4d"
       id="path3852"
       d="m 82.927472,19.479667 c 1.121048,0.01248 2.242688,0.03184 3.363224,-0.0074 1.18366,-0.01424 2.35163,-0.196565 3.497721,-0.480417 0.25133,-0.06156 0.395768,-0.08727 0.632311,-0.179715 0.546189,-0.213449 4.090421,-2.325696 -1.51614,0.895344 0.420358,-0.234403 0.737035,-0.554244 0.960792,-0.977174 0.189881,-0.472369 0.219034,-0.983547 0.240599,-1.486169 0.0082,-0.612167 -0.26867,-0.869673 -0.788839,-1.132666 -0.619224,-0.239419 -1.244084,-0.442916 -1.899868,-0.553128 -0.598644,-0.110553 -1.068254,-0.06344 -1.596125,0.24034 0.73137,-0.414617 1.456637,-0.84019 2.194111,-1.24385 0.05969,-0.03267 -0.109724,0.08131 -0.15793,0.129337 -0.234762,0.233873 -0.330667,0.53485 -0.417056,0.845173 -0.121032,0.576132 -0.117677,1.169319 -0.121747,1.755428 0.03702,0.592148 0.318817,1.074791 0.788831,1.423546 0.534914,0.322276 1.142668,0.475443 1.730388,0.670158 0.539099,0.198706 1.114479,0.218781 1.674899,0.309737 0.673758,0.10533 1.354539,0.139018 2.035147,0.15997 0.823066,0.01737 1.646433,0.01688 2.469655,0.01685 0.750233,-0.02571 1.464699,-0.255667 2.171351,-0.487467 0.782945,-0.283623 1.589803,-0.479231 2.378874,-0.745757 0.6826,-0.240338 1.39092,-0.3658 2.07146,-0.613878 0.88815,-0.337557 2.54507,-1.264503 -1.29798,0.825172 -0.12853,0.06988 0.24474,-0.160548 0.36292,-0.246778 0.36925,-0.269428 0.36018,-0.279901 0.68784,-0.588571 0.43689,-0.554576 0.92008,-1.074175 1.34164,-1.640969 0.70311,-1.11462 1.26087,-1.150197 2.92229,-1.996536 0.15501,-0.07896 0.93491,0.228148 1.1003,0.28428 0.80633,0.369186 1.60038,0.76687 2.36891,1.209425 0.71196,0.394695 1.36952,0.883292 2.03074,1.357368 0.54477,0.369537 1.00469,0.813432 1.38108,1.351388 0.40183,0.640484 0.45677,1.011816 0.19075,1.727058 -0.25381,0.428244 -0.59889,0.83261 -1.03305,1.090069 -2.5741,1.52645 -1.78397,1.194446 -3.0902,1.709595 -0.63677,0.174513 -1.28222,0.315887 -1.92484,0.468238 -0.48776,0.122078 -0.98702,0.161304 -1.48751,0.178603 -0.41974,0.03121 -0.84728,-0.03385 -1.26184,0.04339 -0.22461,0.03864 -0.45119,0.05414 -0.67068,0.119876 -0.69709,0.208771 -3.27236,1.786717 1.64724,-0.973942 -0.39632,0.299407 -0.58957,0.714771 -0.68457,1.188524 0,0 -2.50805,1.225899 -2.50805,1.225899 l 0,0 c 0.0719,-0.520911 0.22881,-1.005374 0.60911,-1.38868 1.61874,-0.962213 2.2547,-1.679538 3.8483,-1.838799 0.4226,-0.01914 0.84607,-0.0023 1.26867,-0.02593 0.48867,-0.02937 0.97379,-0.09294 1.44892,-0.214667 0.63245,-0.151506 1.27656,-0.2718 1.88735,-0.498903 1.02185,-0.47281 0.6327,-0.30662 -1.65652,1.019322 -0.11416,0.06612 0.22665,-0.135703 0.33378,-0.212715 0.19429,-0.13968 0.36962,-0.304044 0.53276,-0.478391 0.0759,-0.08112 0.14532,-0.168093 0.21798,-0.25214 0.31146,-0.629446 0.30497,-0.871728 -0.0619,-1.476019 -0.35832,-0.511194 -0.81488,-0.918193 -1.32605,-1.275585 -0.65096,-0.46937 -1.29857,-0.951152 -2.00102,-1.340975 -0.76128,-0.423857 -1.54126,-0.821283 -2.34635,-1.155156 -0.21231,-0.06215 -0.49666,-0.165011 -0.72632,-0.159562 -0.0893,0.0021 -0.33527,0.112556 -0.26035,0.06385 0.70335,-0.457281 1.43796,-0.864598 2.15694,-1.296897 -0.0654,0.05644 -0.14172,0.102193 -0.19603,0.169322 -0.0663,0.08199 -0.10744,0.181491 -0.16116,0.272237 -0.40499,0.598919 -0.93043,1.095287 -1.3403,1.691246 -1.21342,1.284803 -2.84824,2.147281 -4.48951,2.768943 -0.68626,0.223886 -1.396818,0.360155 -2.074571,0.612137 -0.788599,0.257154 -1.596725,0.44805 -2.374449,0.739089 -0.722533,0.228014 -1.457143,0.425798 -2.222091,0.417838 -0.826231,-5.99e-4 -1.652504,5.6e-5 -2.478535,-0.02143 -0.690868,-0.02378 -1.379852,-0.07247 -2.063707,-0.177933 -0.574847,-0.07452 -1.151637,-0.148471 -1.699163,-0.351094 -0.6147,-0.199798 -1.246366,-0.379949 -1.783895,-0.75238 -0.528764,-0.442657 -0.832083,-0.947742 -0.91603,-1.641359 0.0047,-0.604211 0.003,-1.212342 0.08808,-1.811643 0.371029,-1.702581 1.150378,-1.590789 3.071706,-2.670832 0.553755,-0.213938 1.115493,-0.222982 1.694983,-0.09532 0.670627,0.139478 1.322127,0.352538 1.950364,0.626336 0.540496,0.323468 0.941653,0.726408 0.948064,1.393202 -0.01225,0.532771 -0.04853,1.068227 -0.194681,1.583583 -0.178135,0.475049 -0.458073,0.856756 -0.8927,1.130709 -1.302182,0.755495 -2.448819,1.661955 -3.915892,1.966361 -1.150246,0.253659 -2.321125,0.39464 -3.499863,0.414134 -1.139703,0.03286 -2.279558,0.01918 -3.419512,0.03756 0,0 2.25697,-1.639785 2.25697,-1.639785 z"
       inkscape:connector-curvature="0"
       transform="translate(0,924.36218)" />
  </g>
</svg>
